PathFileType	4	(X/Y/Z)	Patient4_TMGait_0pt8_01_right_41.trc.trc
DataRate	CameraRate	NumFrames	NumMarkers	Units	OrigDataRate	OrigDataStartFrame	OrigNumFrames
85.889570552147	85.889570552147	4	33	mm	85.889570552147	71	       141
Frame#	Time	Sacral			L.Shoulder			Chest			R.Shoulder			Neck			R.ASIS			L.ASIS			R.Thigh.Superior			R.Thigh.Lateral			R.Thigh.Inferior			R.Patella			L.Thigh.Superior			L.Thigh.Lateral			L.Thigh.Inferior			L.Patella			L.Shank.Superior			L.Shank.Lateral			L.Shank.Inferior			R.Shank.Superior			R.Shank.Lateral			R.Shank.Inferior			R.Heel			R.Midfoot.Superior			R.Midfoot.Lateral			R.Toe			L.Heel			L.Midfoot.Lateral			L.Midfoot.Superior			L.Toe			L.Elbow			L.Wrist			R.Elbow			R.Wrist			
		X1	Y1	Z1	X2	Y2	Z2	X3	Y3	Z3	X4	Y4	Z4	X5	Y5	Z5	X6	Y6	Z6	X7	Y7	Z7	X8	Y8	Z8	X9	Y9	Z9	X10	Y10	Z10	X11	Y11	Z11	X12	Y12	Z12	X13	Y13	Z13	X14	Y14	Z14	X15	Y15	Z15	X16	Y16	Z16	X17	Y17	Z17	X18	Y18	Z18	X19	Y19	Z19	X20	Y20	Z20	X21	Y21	Z21	X22	Y22	Z22	X23	Y23	Z23	X24	Y24	Z24	X25	Y25	Z25	X26	Y26	Z26	X27	Y27	Z27	X28	Y28	Z28	X29	Y29	Z29	X30	Y30	Z30	X31	Y31	Z31	X32	Y32	Z32	X33	Y33	Z33	

71	46.825000000000	873.722497589023	991.667820905512	506.553866334207	1019.584632495810	1414.852448308051	305.360781620356	1147.213659522815	1346.379206899441	448.415661836744	1092.970620719811	1422.374121963952	632.269669607042	1029.901860863235	1475.983805873138	461.140935745871	1106.404521989492	922.260535793907	600.633421152489	1068.353675808429	939.631222380628	326.211068530303	1091.451145037769	707.081142270662	573.454214258724	981.669017545764	618.682912554673	637.635254210552	1032.192327163442	550.563698048794	554.103957890232	1004.940909962218	465.385433366471	556.400921821466	1147.916801479544	762.248264292643	359.719147895917	1099.247232474100	629.214808509171	287.437764147289	1206.202503905201	576.190834921040	347.319591440065	1233.890789469056	514.300744668684	346.494511972169	1224.304258063944	442.196687934745	337.510703217227	1170.177725558908	305.173699175999	293.333600847691	1268.994603642916	218.001120119171	348.186819403730	959.774102751000	384.959757958753	564.544939968996	872.202989379538	296.742277522244	630.421355215541	887.053625669425	197.194812367269	562.529493742318	724.946774815531	46.850655384312	536.004436565767	898.163512750126	96.321759425974	566.831103964763	809.660511397162	38.366294743690	608.231167261261	1017.539038988915	40.478915644324	593.074224838576	1206.315809862808	38.220070731259	396.793712512777	1275.866684267569	43.563746861500	312.916174978476	1342.442623519556	124.039934826739	329.174824551185	1476.068819403056	100.314409188008	297.320029902337	837.806376360486	1114.953662080245	231.434297892707	738.328471960995	877.091135214180	251.221568316412	1288.977706788717	1154.195638396488	742.384661458630	1523.469104666777	1230.479085069803	672.037115893606	
72	46.836642857143	875.503781036542	990.169541990965	504.036751072764	1020.298081916001	1413.435900601833	303.366731641976	1148.117477485701	1345.372714312721	446.426736554686	1093.488124165882	1421.381203232464	630.230771729447	1030.515902947466	1474.668957088456	459.028802317248	1107.859352303703	920.494695201057	598.868135096694	1070.841721090247	938.365650943688	324.300893969102	1092.073244530706	705.126718113603	571.959397985256	981.394618038132	617.292647895582	635.682383368377	1032.082921803301	548.576264151222	552.606803398222	1003.892901657987	462.780233955428	554.801333733183	1151.582542039733	761.744423136719	358.711286432583	1102.310288061285	628.122438989566	287.409841720434	1209.165662507318	575.324222265679	347.167229802722	1235.636590000594	511.852335026031	347.146694003044	1225.221314118840	439.235013350833	338.225180610122	1168.466210840607	303.322880175817	293.860024397800	1264.582271414385	214.033279107981	349.936788594465	957.025534486224	383.187717001130	563.030642830214	867.717251885526	296.921461594085	629.300485296129	880.455271995211	196.833261364134	561.940130742561	715.773532108085	48.482388775967	536.217982846904	889.432434356935	96.567510342809	566.869752999358	800.556446386099	39.105215318312	608.325700000656	1008.416188166555	39.887692998815	593.208284337251	1196.189883362720	37.605032353960	398.474857523206	1265.594787568517	41.002890234588	314.224645569998	1335.675766418251	118.100272474758	331.465424909027	1468.357331432827	88.669876827302	298.813583876090	836.639055997801	1115.147511286275	230.637244919751	735.335508010366	878.006816973133	250.998573860380	1291.304980671050	1155.181946436557	740.294535759139	1520.993588668841	1240.977969012625	667.745476601007	
73	46.848285714286	877.393776441605	988.879155752137	501.347088481924	1021.153554439791	1412.159903463309	301.304060277136	1149.145249064403	1344.552613041855	444.411874339154	1094.080261192891	1420.543083943463	628.184124870553	1031.258701518146	1473.532757477447	456.892629498148	1109.366907865444	918.885438832484	596.996014816578	1073.466960547132	937.379512545678	322.373565376526	1092.844128583946	703.364141778684	570.334859943267	981.342504263163	616.056135506965	633.575026201501	1032.320819874136	546.742059642099	550.985884872274	1003.369214517101	460.144002176233	553.216357430002	1155.343135531017	761.417943451570	357.728088475637	1105.598884717504	627.406694332668	287.075849794475	1212.247540806809	574.699836191446	346.984005118176	1237.468090705590	509.732837226193	347.701692444858	1226.280873972407	436.643277721740	338.703507471870	1167.101685681792	301.860126068889	293.922491282540	1260.389394248894	210.503525577458	351.328158930430	954.601685628178	381.527810660456	561.495765210497	863.494600564176	297.375636563668	628.172399912012	874.081002866141	196.751541264873	561.402934184518	706.651835720960	50.662236121969	536.485560986125	880.925377046119	96.923403181811	567.004770142073	791.505026397322	40.094613847616	608.457309203351	999.325037211045	39.356464492438	593.316025141298	1186.192570533279	37.275034911351	399.671041274909	1255.533142055880	38.926428586197	315.123920375223	1328.912602941804	112.754390147104	333.438664708617	1460.621607412457	77.947360848684	300.143342821905	836.475009892329	1114.789429727711	229.622768239126	733.967643413602	878.111618658212	250.244308479388	1293.025687776582	1155.601351305377	738.335891398388	1517.804152469036	1250.002915746575	663.664752502662	
74	46.859928571429	879.355714550893	987.861813931304	498.520659844237	1022.181291192435	1411.091726684552	299.184118754729	1150.300829274043	1343.962998469923	442.397053214820	1094.755393886872	1419.921051319548	626.142461087093	1032.140205855699	1472.639548645093	454.736569880777	1110.896828626553	917.509345372979	595.000478421798	1076.161385973910	936.734755332387	320.431107753171	1093.819279342016	701.872268195497	568.556365929446	981.656709838840	614.992215128298	631.324214941858	1033.066545076435	545.109379260967	549.237872262376	1003.574904371956	457.498846523096	551.706142329437	1159.044897216777	761.293575600101	356.759809210102	1109.016272547783	627.108123301194	286.394927100911	1215.337183241490	574.355906768282	346.720604659679	1239.331885380543	508.038770986146	348.075272661130	1227.415790892931	434.500545754466	338.917976752576	1166.043672388047	300.852187413515	293.545567865158	1256.409776733950	207.535974151418	352.336981995289	952.673862263147	379.998840429132	559.994146910676	859.672918111562	298.174093335584	627.063768192938	868.050744181882	197.012013354182	560.951391979946	697.652048951617	53.548463353893	536.807213497080	872.716669150393	97.382166558398	567.234711838319	782.539272885164	41.413440214978	608.623129148065	990.263512704023	38.902941375944	593.386753529877	1176.521832484625	37.207456900529	400.414650734149	1245.861822268722	37.383939122002	315.644340843629	1322.158244174366	108.221981771103	335.032705018389	1452.911936266813	68.675022895000	301.250468074783	837.347117484515	1113.919275447092	228.347539328190	734.295310798727	877.415674115869	248.959373490846	1294.086280913953	1155.433601389834	736.516239732644	1513.985257954053	1257.518403408082	659.804547440599	
